<?xml version="1.0" encoding="utf-8"?>
<!-- Generator: Adobe Illustrator 21.1.0, SVG Export Plug-In . SVG Version: 6.00 Build 0)  -->
<svg version="1.1" id="Layer_1" xmlns="http://www.w3.org/2000/svg" xmlns:xlink="http://www.w3.org/1999/xlink" x="0px" y="0px"
	 viewBox="0 0 375 27" style="enable-background:new 0 0 375 27;" xml:space="preserve">
<style type="text/css">
	.st0{fill:#666666;}
	.st1{fill:none;stroke:#666666;stroke-miterlimit:10;}
</style>
<title>assets</title>
<g>
	<path id="wordmark" class="st0" d="M276.6,15.5c0,2.3-1.9,4.2-4.2,4.2c0,0,0,0-0.1,0c-2.2,0.1-4.1-1.6-4.2-3.9c0-0.1,0-0.2,0-0.2
		v-8h-1.3v8.1c0.2,3.2,2.9,5.5,5.9,5.3c2.7-0.2,4.9-2.5,5.1-5.3V7.4h-1.3v8.1H276.6z M290.5,7.4h-4.1v13.5h4.1
		c3.8,0,6.3-2.6,6.3-6.8S294.3,7.4,290.5,7.4z M290.4,19.6h-2.7V8.8h2.7c2.7-0.1,5,2.1,5.1,4.9c0,0.2,0,0.3,0,0.5
		c0.2,2.7-1.7,5.2-4.4,5.4C290.9,19.6,290.6,19.6,290.4,19.6L290.4,19.6z M326.7,19.6c-2.9,0-5.2-2.5-5.1-5.5c0-0.1,0-0.1,0-0.2
		c-0.1-2.9,2.1-5.3,4.9-5.5c0.1,0,0.2,0,0.3,0c1.4,0,2.7,0.5,3.8,1.4l0.6-0.9c-2.7-2.5-6.9-2.2-9.3,0.7c-1,1.2-1.6,2.7-1.6,4.3
		c-0.1,3.7,2.7,6.9,6.3,7c0.1,0,0.1,0,0.2,0c1.8,0,3.6-0.8,4.8-2.2l-0.7-0.9C329.7,18.9,328.2,19.5,326.7,19.6L326.7,19.6z
		 M339.7,20.9h1.3V7.4h-1.3V20.9z M348.1,8.8h4.5v12.1h1.3V8.8h4.5V7.4H348L348.1,8.8z M373.6,7.4l-4,6.1l-4.1-6.1h-1.4l4.9,7.5v6
		h1.3v-6l4.7-7.5L373.6,7.4z M307.8,7.4l-5.1,13.5h1.4l1.4-3.8l5.7-1.2L313,21h1.4l-5.1-13.5L307.8,7.4L307.8,7.4z M305.9,15.6
		l2.5-6.3h0.1l2.1,5.4L305.9,15.6z"/>
	<path id="mark" class="st0" d="M237.2,0l-8.6,5.2v11.9c0,5.5,4.2,9.9,9.5,9.9l0,0c1.7,0,3.3-0.4,4.8-1.3l7-4.2
		c2.9-1.6,4.7-4.7,4.7-8V1.1l-1.7-1l-7.4,4.2v13c0,0.5-0.1,1.1-0.1,1.6c-0.1,0.5-0.3,1-0.5,1.5l-0.2,0.4c-1-0.2-1.9-0.7-2.7-1.2
		s-1.4-1.2-1.9-2c-0.7-1.2-1.1-2.5-1.2-3.9V1L237.2,0z M241.4,24.4c-0.5,0.2-1.1,0.4-1.6,0.6c-0.5,0.1-1,0.2-1.5,0.1
		c-0.5,0-1-0.1-1.6-0.2c-0.5-0.1-1-0.3-1.4-0.5c-0.5-0.2-0.9-0.5-1.3-0.8c-0.8-0.6-1.5-1.3-2.1-2.2c-0.3-0.4-0.5-0.9-0.7-1.3
		c-0.2-0.5-0.3-1-0.5-1.5s-0.3-1-0.3-1.5V6.2l6.5-4.2v11.4c0.1,4.3,3,8,7,8.8c-0.1,0.2-0.3,0.4-0.5,0.5
		C242.9,23.5,242.2,24,241.4,24.4L241.4,24.4z M252.4,15c-0.1,0.5-0.2,0.9-0.4,1.4c-0.2,0.4-0.4,0.8-0.6,1.2c-0.5,0.8-1.3,1.5-2.1,2
		s-1.7,0.8-2.6,0.9c0.4-1.1,0.6-2.2,0.6-3.4V5.2l5.2-3.1v11.4C252.6,14,252.6,14.5,252.4,15L252.4,15z"/>
</g>
<g>
	<polygon class="st0" points="178.3,0 176.7,0 175.5,1.5 174,3.4 172.5,1.5 171.3,0 169.7,0 169.7,0 169.7,9 171.1,9 171.1,2.1 
		174,5.7 176.9,2.1 176.9,9 178.3,9 	"/>
	<polygon class="st0" points="168.2,0 161,0 161,1.5 163.9,1.5 163.9,9 165.4,9 165.4,1.5 168.2,1.5 	"/>
	<path class="st0" d="M143.8,0v13.5c-3.1-2.5-7.7-1.9-10.1,1.3c-2.4,3.3-1.9,8,1.3,10.5c3.1,2.5,7.7,1.9,10.1-1.3
		c1-1.3,1.5-2.9,1.5-4.6V0H143.8z M139.4,24c-2.4,0-4.3-2-4.3-4.5s1.9-4.5,4.3-4.5c2.4,0,4.3,2,4.3,4.5l0,0
		C143.7,22,141.8,24,139.4,24z"/>
	<rect x="152.4" class="st0" width="1.4" height="26.9"/>
	<rect x="125" class="st0" width="1.4" height="26.9"/>
	<rect x="136.1" y="17.7" class="st0" width="6.7" height="0.2"/>
</g>
<rect x="73" y="12.8" class="st0" width="36" height="1.5"/>
<g>
	<g>
		<path class="st0" d="M6,9c2.5,0,4.5,2,4.5,4.5c0.1,2.4-1.8,4.5-4.3,4.6s-4.6-1.7-4.7-4.2c0-0.1,0-0.3,0-0.4C1.5,11,3.5,9,6,9
			 M6,7.5c-3.3,0-6,2.7-6,5.9l0,0c-0.1,3.2,2.4,5.9,5.7,6.1c3.3,0.1,6.1-2.4,6.2-5.6c0-0.2,0-0.3,0-0.5C12,10.2,9.3,7.5,6,7.5L6,7.5
			L6,7.5z"/>
		<path class="st0" d="M6,14.9c-0.8,0-1.5-0.7-1.5-1.5C4.5,12.6,5.2,12,6,12l0,0c0.4,0,0.8,0.2,1,0.4l1-1c-0.6-0.6-1.3-0.9-2.1-0.9
			c-1.7,0-3.1,1.3-3.1,3s1.4,3,3.1,3l0,0c0.8,0,1.6-0.3,2.1-0.9l-1-1C6.8,14.8,6.4,14.9,6,14.9z"/>
	</g>
	<polygon class="st0" points="23.7,9 22,9 20.8,10.5 19.4,12.3 17.9,10.5 16.6,9 15,9 15,9 15,18 16.4,18 16.4,11.1 19.4,14.7 
		22.2,11.1 22.2,18 23.7,18 	"/>
	<polygon class="st0" points="33.8,9 32.2,9 31,10.5 29.5,12.3 28,10.5 26.8,9 25.1,9 25.1,9 25.1,18 26.6,18 26.6,11.1 29.5,14.7 
		32.4,11.1 32.4,18 33.8,18 	"/>
	<polygon class="st0" points="39,13.5 41.5,9 39.9,9 38.2,12.1 36.5,9 34.9,9 37.4,13.5 34.9,18 36.5,18 38.2,14.9 39.9,18 41.5,18 
			"/>
	<polygon class="st0" points="47.3,9 45.4,14.4 43.5,9 42.1,9 44.7,16.5 45.2,18 45.6,18 46.1,16.5 48.8,9 	"/>
	<rect x="49.8" y="9" class="st0" width="1.4" height="9"/>
	<rect x="52.7" y="9" class="st0" width="1.4" height="9"/>
	<rect x="55.6" y="9" class="st0" width="1.4" height="9"/>
</g>
<g>
	<line class="st1" x1="194" y1="7.5" x2="205.9" y2="19.5"/>
	<line class="st1" x1="206" y1="7.5" x2="194" y2="19.5"/>
</g>
</svg>
