<?xml version="1.0" encoding="utf-8"?>
<!-- Generator: Adobe Illustrator 21.1.0, SVG Export Plug-In . SVG Version: 6.00 Build 0)  -->
<svg version="1.1" id="Layer_1" xmlns="http://www.w3.org/2000/svg" xmlns:xlink="http://www.w3.org/1999/xlink" x="0px" y="0px"
	 viewBox="0 0 48 48" style="enable-background:new 0 0 48 48;" xml:space="preserve">
<style type="text/css">
	.st0{fill:#FFFFFF;}
</style>
<g>
	<path class="st0" d="M12.9,3h-0.3h-0.3v0C10.5,3.2,9.1,4.6,9,6.5h0v30.6v0.3v0.3h0c0.1,1.8,1.6,3.2,3.3,3.3v0h0.3h0.3H16v2v2h2h2h2
		v-2v-2h17v-0.4V39V5V3.8V3H12.9z M11.7,38.7c-0.4-0.3-0.7-0.8-0.7-1.4v-0.3V9.8c0.2,0.1,0.5,0.2,0.7,0.3V38.7z M20,43h-2v-2h2V43z
		 M37,39H22h-2h-2h-2h-2.3V10.3H37V39z M37,8.3H12.9h-0.3c-0.9,0-1.6-0.7-1.6-1.6S11.7,5,12.6,5h0.3H37V8.3z"/>
	<rect x="17" y="6" class="st0" width="4" height="1"/>
</g>
</svg>
